<?xml version="1.0" encoding="UTF-8"?>
<svg width="512px" height="407px" viewBox="0 0 512 407" version="1.1" xmlns="http://www.w3.org/2000/svg" xmlns:xlink="http://www.w3.org/1999/xlink">
    <title>pipFlow</title>
    <g stroke="none" stroke-width="1" fill="none" fill-rule="evenodd">
        <path d="M69.662328,0 L501.670124,0 C506.524541,-8.91741941e-16 510.459824,3.93528254 510.459824,8.78969957 C510.459824,9.26097208 510.421922,9.73148129 510.346485,10.196677 L446.675852,402.832244 C446.330792,404.960114 444.493338,406.523605 442.337672,406.523605 L10.3298758,406.523605 C5.47545875,406.523605 1.54017621,402.588323 1.54017621,397.733906 C1.54017621,397.262633 1.57807805,396.792124 1.65351518,396.326928 L65.3241477,3.69136109 C65.6692077,1.56349097 67.5066616,-4.0449026e-15 69.662328,0 Z" id="矩形备份-4" fill="#ea4a4a"></path>
        <path d="M65.9227468,0 L121.587983,0 L121.587983,38.3261803 L329.090129,98.8841202 L155.545064,306.32618 L388.978541,406.523605 L10.3298758,406.523605 C5.47545875,406.523605 1.54017621,402.588323 1.54017621,397.733906 C1.54017621,397.262633 1.57807805,396.792124 1.65351518,396.326928 L65.9227468,0 L65.9227468,0 Z" id="矩形备份-5" fill="#ea4a4a"></path>
        <path d="M184.583691,0 L181.343046,19.9701974 L269.002136,19.9723948 L270.687931,19.9862909 C325.684939,20.7593321 372.952079,59.300011 384.779836,113.01718 L385.127377,114.649595 L385.442776,116.246088 C395.324426,168.39459 363.878956,219.548603 312.884631,234.275447 L311.333387,234.710528 L296.098609,238.855691 L303.878688,255.824252 L255.625922,272.480687 L246.1863,252.442369 L230.355612,256.752327 L229.629197,256.959209 C219.028271,260.112913 210.78877,268.499102 207.822605,279.154023 L207.628572,279.883975 L206.48473,284.399173 L206.374921,284.876225 C205.221685,290.442128 208.521813,295.981606 213.96546,297.617437 L214.437254,297.748 L215.10298,297.894832 C215.549406,297.978863 216.000616,298.035127 216.454007,298.0633 L217.135405,298.084449 L345.002858,298.082884 L348.801091,274.678112 L412.526413,274.678112 L391.141631,406.523605 L327.416309,406.523605 L330.407562,388.069631 L235.259029,388.071751 L233.564535,388.059841 C178.28382,387.282418 130.781411,348.523378 118.92847,294.521219 L118.58023,292.880148 L118.263644,291.272248 C108.344239,238.750886 139.856967,187.207537 191.128298,172.09703 L192.688,171.650324 L206.331605,167.854695 L198.03693,150.253787 L248.029713,134.042918 L257.065751,153.74503 L278.661205,147.737977 L279.269097,147.559967 C288.727175,144.650079 295.283787,136.025259 295.558511,126.134473 L295.567486,125.487673 L295.567486,121.124184 L295.558392,120.629899 C295.304504,113.741307 289.765814,108.202616 282.877222,107.948729 L282.382937,107.939635 L167.077364,107.935313 L163.198909,131.845494 L99.4735873,131.845494 L120.858369,0 L184.583691,0 Z" id="路径" fill="#FFFFFF"></path>
    </g>
</svg>